<svg version="1.1" xmlns="http://www.w3.org/2000/svg" xmlns:xlink="http://www.w3.org/1999/xlink" viewBox="0 0 10.6172 10.2266">
 <g>
  <rect height="10.2266" opacity="0" width="10.6172" x="0" y="0"/>
  <path d="M0 5.10938C0 5.45312 0.289062 5.74219 0.632812 5.74219L4.47656 5.74219L4.47656 9.58594C4.47656 9.92188 4.76562 10.2188 5.10938 10.2188C5.45312 10.2188 5.73438 9.92188 5.73438 9.58594L5.73438 5.74219L9.58594 5.74219C9.92188 5.74219 10.2109 5.45312 10.2109 5.10938C10.2109 4.76562 9.92188 4.47656 9.58594 4.47656L5.73438 4.47656L5.73438 0.632812C5.73438 0.296875 5.45312 0 5.10938 0C4.76562 0 4.47656 0.296875 4.47656 0.632812L4.47656 4.47656L0.632812 4.47656C0.289062 4.47656 0 4.76562 0 5.10938Z" fill="white" fill-opacity="0.85"/>
 </g>
</svg>
