<svg version="1.1" xmlns="http://www.w3.org/2000/svg" xmlns:xlink="http://www.w3.org/1999/xlink" viewBox="0 0 10.2168 9.82422">
 <g>
  <rect height="9.82422" opacity="0" width="10.2168" x="0" y="0"/>
  <path d="M0.178723 9.64258C0.428723 9.88477 0.834973 9.88477 1.07716 9.64258L4.90529 5.80664L8.74122 9.64258C8.9756 9.88477 9.38966 9.88477 9.63185 9.64258C9.87404 9.39258 9.87404 8.98633 9.63185 8.75195L5.79591 4.91602L9.63185 1.08789C9.87404 0.845703 9.88185 0.431641 9.63185 0.189453C9.38185-0.0449219 8.9756-0.0449219 8.74122 0.189453L4.90529 4.02539L1.07716 0.189453C0.834973-0.0449219 0.42091-0.0527344 0.178723 0.189453C-0.0556521 0.439453-0.0556521 0.845703 0.178723 1.08789L4.01466 4.91602L0.178723 8.75195C-0.0556521 8.98633-0.0634646 9.40039 0.178723 9.64258Z" fill="white" fill-opacity="0.85"/>
 </g>
</svg>

